<mxfile host="app.diagrams.net" modified="2024-05-09T13:21:33.304Z" agent="Mozilla/5.0 (Windows NT 10.0; Win64; x64) AppleWebKit/537.36 (KHTML, like Gecko) Chrome/124.0.0.0 Safari/537.36" etag="Y2MD0SkErp4PJbDPJAP0" version="24.3.1" type="github">
  <diagram name="Page-1" id="DDYgb2A4wmDNynXCX9ak">
    <mxGraphModel dx="1434" dy="772" grid="1" gridSize="10" guides="1" tooltips="1" connect="1" arrows="1" fold="1" page="1" pageScale="1" pageWidth="850" pageHeight="1100" math="0" shadow="0">
      <root>
        <mxCell id="0" />
        <mxCell id="1" parent="0" />
        <mxCell id="6Bxk8d2IZcpDvYt2KLzT-3" style="edgeStyle=orthogonalEdgeStyle;rounded=0;orthogonalLoop=1;jettySize=auto;html=1;" edge="1" parent="1" source="6Bxk8d2IZcpDvYt2KLzT-1" target="6Bxk8d2IZcpDvYt2KLzT-2">
          <mxGeometry relative="1" as="geometry" />
        </mxCell>
        <mxCell id="6Bxk8d2IZcpDvYt2KLzT-1" value="Data csv file" style="rounded=1;whiteSpace=wrap;html=1;" vertex="1" parent="1">
          <mxGeometry x="110" y="130" width="120" height="60" as="geometry" />
        </mxCell>
        <mxCell id="6Bxk8d2IZcpDvYt2KLzT-6" style="edgeStyle=orthogonalEdgeStyle;rounded=0;orthogonalLoop=1;jettySize=auto;html=1;exitX=0.5;exitY=1;exitDx=0;exitDy=0;entryX=0.5;entryY=0;entryDx=0;entryDy=0;" edge="1" parent="1" source="6Bxk8d2IZcpDvYt2KLzT-2" target="6Bxk8d2IZcpDvYt2KLzT-5">
          <mxGeometry relative="1" as="geometry" />
        </mxCell>
        <mxCell id="6Bxk8d2IZcpDvYt2KLzT-2" value="File Reader" style="rounded=1;whiteSpace=wrap;html=1;" vertex="1" parent="1">
          <mxGeometry x="330" y="130" width="120" height="60" as="geometry" />
        </mxCell>
        <mxCell id="6Bxk8d2IZcpDvYt2KLzT-9" style="edgeStyle=orthogonalEdgeStyle;rounded=0;orthogonalLoop=1;jettySize=auto;html=1;exitX=0.5;exitY=1;exitDx=0;exitDy=0;entryX=0.5;entryY=0;entryDx=0;entryDy=0;" edge="1" parent="1" source="6Bxk8d2IZcpDvYt2KLzT-5" target="6Bxk8d2IZcpDvYt2KLzT-8">
          <mxGeometry relative="1" as="geometry" />
        </mxCell>
        <mxCell id="6Bxk8d2IZcpDvYt2KLzT-5" value="PublishData&lt;div&gt;&lt;br&gt;&lt;/div&gt;" style="rounded=1;whiteSpace=wrap;html=1;" vertex="1" parent="1">
          <mxGeometry x="330" y="240" width="120" height="60" as="geometry" />
        </mxCell>
        <mxCell id="6Bxk8d2IZcpDvYt2KLzT-7" value="data rows" style="text;html=1;align=center;verticalAlign=middle;resizable=0;points=[];autosize=1;strokeColor=none;fillColor=none;" vertex="1" parent="1">
          <mxGeometry x="380" y="198" width="80" height="30" as="geometry" />
        </mxCell>
        <mxCell id="6Bxk8d2IZcpDvYt2KLzT-12" style="edgeStyle=orthogonalEdgeStyle;rounded=0;orthogonalLoop=1;jettySize=auto;html=1;entryX=0;entryY=0.5;entryDx=0;entryDy=0;exitX=1;exitY=0.5;exitDx=0;exitDy=0;" edge="1" parent="1" source="6Bxk8d2IZcpDvYt2KLzT-5" target="6Bxk8d2IZcpDvYt2KLzT-11">
          <mxGeometry relative="1" as="geometry" />
        </mxCell>
        <mxCell id="6Bxk8d2IZcpDvYt2KLzT-16" style="edgeStyle=orthogonalEdgeStyle;rounded=0;orthogonalLoop=1;jettySize=auto;html=1;entryX=0.5;entryY=1;entryDx=0;entryDy=0;" edge="1" parent="1" source="6Bxk8d2IZcpDvYt2KLzT-14" target="6Bxk8d2IZcpDvYt2KLzT-8">
          <mxGeometry relative="1" as="geometry" />
        </mxCell>
        <mxCell id="6Bxk8d2IZcpDvYt2KLzT-17" style="edgeStyle=orthogonalEdgeStyle;rounded=0;orthogonalLoop=1;jettySize=auto;html=1;exitX=0.5;exitY=0;exitDx=0;exitDy=0;entryX=0.25;entryY=1;entryDx=0;entryDy=0;" edge="1" parent="1" source="6Bxk8d2IZcpDvYt2KLzT-13" target="6Bxk8d2IZcpDvYt2KLzT-8">
          <mxGeometry relative="1" as="geometry" />
        </mxCell>
        <mxCell id="6Bxk8d2IZcpDvYt2KLzT-18" style="edgeStyle=orthogonalEdgeStyle;rounded=0;orthogonalLoop=1;jettySize=auto;html=1;exitX=0.5;exitY=0;exitDx=0;exitDy=0;entryX=0.75;entryY=1;entryDx=0;entryDy=0;" edge="1" parent="1" source="6Bxk8d2IZcpDvYt2KLzT-15" target="6Bxk8d2IZcpDvYt2KLzT-8">
          <mxGeometry relative="1" as="geometry" />
        </mxCell>
        <mxCell id="6Bxk8d2IZcpDvYt2KLzT-8" value="Process Data" style="rounded=1;whiteSpace=wrap;html=1;" vertex="1" parent="1">
          <mxGeometry x="330" y="410" width="120" height="60" as="geometry" />
        </mxCell>
        <mxCell id="6Bxk8d2IZcpDvYt2KLzT-10" value="{ticker}_{date} -&amp;gt; Data" style="text;html=1;align=center;verticalAlign=middle;resizable=0;points=[];autosize=1;strokeColor=none;fillColor=none;" vertex="1" parent="1">
          <mxGeometry x="450" y="240" width="140" height="30" as="geometry" />
        </mxCell>
        <mxCell id="6Bxk8d2IZcpDvYt2KLzT-32" style="edgeStyle=orthogonalEdgeStyle;rounded=0;orthogonalLoop=1;jettySize=auto;html=1;exitX=0.5;exitY=1;exitDx=0;exitDy=0;entryX=1;entryY=0.5;entryDx=0;entryDy=0;" edge="1" parent="1" source="6Bxk8d2IZcpDvYt2KLzT-11" target="6Bxk8d2IZcpDvYt2KLzT-8">
          <mxGeometry relative="1" as="geometry" />
        </mxCell>
        <mxCell id="6Bxk8d2IZcpDvYt2KLzT-11" value="" style="shape=datastore;whiteSpace=wrap;html=1;" vertex="1" parent="1">
          <mxGeometry x="640" y="240" width="60" height="60" as="geometry" />
        </mxCell>
        <mxCell id="6Bxk8d2IZcpDvYt2KLzT-13" value="Study 1" style="rounded=1;whiteSpace=wrap;html=1;" vertex="1" parent="1">
          <mxGeometry x="160" y="560" width="120" height="60" as="geometry" />
        </mxCell>
        <mxCell id="6Bxk8d2IZcpDvYt2KLzT-14" value="Study 2" style="rounded=1;whiteSpace=wrap;html=1;" vertex="1" parent="1">
          <mxGeometry x="330" y="560" width="120" height="60" as="geometry" />
        </mxCell>
        <mxCell id="6Bxk8d2IZcpDvYt2KLzT-15" value="Study 3" style="rounded=1;whiteSpace=wrap;html=1;" vertex="1" parent="1">
          <mxGeometry x="540" y="560" width="120" height="60" as="geometry" />
        </mxCell>
        <mxCell id="6Bxk8d2IZcpDvYt2KLzT-24" style="edgeStyle=orthogonalEdgeStyle;rounded=0;orthogonalLoop=1;jettySize=auto;html=1;exitX=0;exitY=0.5;exitDx=0;exitDy=0;" edge="1" parent="1" source="6Bxk8d2IZcpDvYt2KLzT-23" target="6Bxk8d2IZcpDvYt2KLzT-20">
          <mxGeometry relative="1" as="geometry" />
        </mxCell>
        <mxCell id="6Bxk8d2IZcpDvYt2KLzT-27" style="edgeStyle=orthogonalEdgeStyle;rounded=0;orthogonalLoop=1;jettySize=auto;html=1;exitX=0;exitY=0.75;exitDx=0;exitDy=0;entryX=1;entryY=0.75;entryDx=0;entryDy=0;" edge="1" parent="1" source="6Bxk8d2IZcpDvYt2KLzT-20" target="6Bxk8d2IZcpDvYt2KLzT-21">
          <mxGeometry relative="1" as="geometry" />
        </mxCell>
        <mxCell id="6Bxk8d2IZcpDvYt2KLzT-20" value="API" style="rounded=1;whiteSpace=wrap;html=1;" vertex="1" parent="1">
          <mxGeometry x="230" y="760" width="130" height="60" as="geometry" />
        </mxCell>
        <mxCell id="6Bxk8d2IZcpDvYt2KLzT-25" style="edgeStyle=orthogonalEdgeStyle;rounded=0;orthogonalLoop=1;jettySize=auto;html=1;entryX=0;entryY=0.5;entryDx=0;entryDy=0;" edge="1" parent="1" source="6Bxk8d2IZcpDvYt2KLzT-21" target="6Bxk8d2IZcpDvYt2KLzT-20">
          <mxGeometry relative="1" as="geometry" />
        </mxCell>
        <mxCell id="6Bxk8d2IZcpDvYt2KLzT-21" value="" style="shape=actor;whiteSpace=wrap;html=1;" vertex="1" parent="1">
          <mxGeometry x="80" y="760" width="40" height="60" as="geometry" />
        </mxCell>
        <mxCell id="6Bxk8d2IZcpDvYt2KLzT-23" value="" style="shape=datastore;whiteSpace=wrap;html=1;" vertex="1" parent="1">
          <mxGeometry x="480" y="760" width="60" height="60" as="geometry" />
        </mxCell>
        <mxCell id="6Bxk8d2IZcpDvYt2KLzT-26" value="Studies" style="text;html=1;align=center;verticalAlign=middle;resizable=0;points=[];autosize=1;strokeColor=none;fillColor=none;" vertex="1" parent="1">
          <mxGeometry x="150" y="758" width="60" height="30" as="geometry" />
        </mxCell>
        <mxCell id="6Bxk8d2IZcpDvYt2KLzT-28" value="Ticker rankings" style="text;html=1;align=center;verticalAlign=middle;resizable=0;points=[];autosize=1;strokeColor=none;fillColor=none;" vertex="1" parent="1">
          <mxGeometry x="130" y="808" width="100" height="30" as="geometry" />
        </mxCell>
        <mxCell id="6Bxk8d2IZcpDvYt2KLzT-29" value="notification" style="text;html=1;align=center;verticalAlign=middle;resizable=0;points=[];autosize=1;strokeColor=none;fillColor=none;" vertex="1" parent="1">
          <mxGeometry x="390" y="340" width="80" height="30" as="geometry" />
        </mxCell>
      </root>
    </mxGraphModel>
  </diagram>
</mxfile>
